<svg width="22" height="22" viewBox="0 0 22 22" fill="none" xmlns="http://www.w3.org/2000/svg">
<path d="M0 11.0001C0 4.92481 4.93617 0 11.0256 0C16.7566 0 21.4666 4.36343 22 9.94153H17.8065V12.0582H22C21.4666 17.6374 16.7566 22 11.0256 22C4.93617 22 0 17.0755 0 11.0001Z" fill="#60BB47"/>
<path d="M14.145 8.95538C14.3783 8.91901 14.5778 8.85718 14.7143 8.77632C14.8511 8.69519 14.9201 8.56425 14.8878 8.36113C14.8232 7.95405 14.6186 7.42023 14.2548 6.82137C13.9152 6.18921 13.3808 5.64741 12.652 5.19655C11.9569 4.76947 11.0362 4.61629 9.92377 4.76233C9.19509 4.87816 8.48043 5.08002 7.81274 5.39407C7.14546 5.70868 6.54437 6.25076 6.00007 6.96308C5.36631 7.86774 5.00498 8.78905 4.90571 9.67036C4.777 10.5543 4.77574 11.3002 4.8973 11.8773C5.05448 12.8664 5.27587 13.6955 5.55644 14.3369C5.84219 15.0077 6.30335 15.6501 6.90935 16.2702C7.58797 16.9667 8.37092 17.3802 9.23715 17.5715C10.1003 17.7329 10.9682 17.7452 11.8138 17.6119C12.6836 17.444 13.3848 17.1549 13.971 16.7043C14.523 16.2299 14.9832 15.7392 15.3126 15.1812C15.613 14.6265 15.8355 14.1446 15.946 13.7094C15.9809 13.5547 15.9917 13.4338 15.9819 13.3756C15.9728 13.3169 15.9347 13.2641 15.8768 13.2727L15.4651 13.1297C15.4065 13.1384 15.3779 13.1433 15.3236 13.1814C15.2705 13.2199 15.2458 13.2532 15.226 13.3163C15.0422 13.8525 14.7078 14.3825 14.1555 14.8569C13.6081 15.3605 12.9116 15.6792 12.0127 15.851C10.8129 16.011 9.74766 15.7017 8.84189 14.8913C7.93654 14.0802 7.33882 12.9522 7.079 11.5029C6.97244 10.834 6.92842 10.3637 6.94538 10.0931L14.145 8.95538ZM6.92295 9.20187C7.04353 8.07981 7.33153 7.25964 7.81203 6.7061C8.29254 6.15409 8.86769 5.82367 9.5086 5.72281C10.1253 5.65511 10.6482 5.75107 11.0197 6.02064C11.3914 6.28965 11.6847 6.63126 11.8656 7.02015C12.018 7.4131 12.1271 7.72407 12.1641 7.95699C12.1869 8.1022 12.1421 8.19872 12.0348 8.27524C11.903 8.38533 11.7038 8.44674 11.4414 8.48829L6.92295 9.20187Z" fill="white"/>
</svg>
